<svg xmlns="http://www.w3.org/2000/svg" viewBox="0 0 100 100">
  <!-- Background circle -->
  <circle cx="50" cy="50" r="48" fill="#7c3aed" stroke="#6d28d9" stroke-width="2"/>
  
  <!-- Cow face (simplified) -->
  <!-- Head -->
  <ellipse cx="50" cy="52" rx="30" ry="28" fill="#fff"/>
  
  <!-- Ears -->
  <ellipse cx="28" cy="35" rx="8" ry="12" fill="#fff"/>
  <ellipse cx="72" cy="35" rx="8" ry="12" fill="#fff"/>
  <ellipse cx="28" cy="35" rx="5" ry="8" fill="#1f2937"/>
  <ellipse cx="72" cy="35" rx="5" ry="8" fill="#1f2937"/>
  
  <!-- Spots -->
  <ellipse cx="38" cy="45" rx="6" ry="8" fill="#1f2937"/>
  <ellipse cx="62" cy="48" rx="7" ry="9" fill="#1f2937"/>
  <ellipse cx="50" cy="38" rx="5" ry="6" fill="#1f2937"/>
  
  <!-- Eyes -->
  <circle cx="42" cy="50" r="3" fill="#1f2937"/>
  <circle cx="58" cy="50" r="3" fill="#1f2937"/>
  <circle cx="43" cy="49" r="1.2" fill="#fff"/>
  <circle cx="59" cy="49" r="1.2" fill="#fff"/>
  
  <!-- Nose -->
  <ellipse cx="50" cy="60" rx="10" ry="8" fill="#fca5a5"/>
  <ellipse cx="47" cy="59" rx="2" ry="3" fill="#991b1b"/>
  <ellipse cx="53" cy="59" rx="2" ry="3" fill="#991b1b"/>
  
  <!-- Smile -->
  <path d="M 44 64 Q 50 67 56 64" stroke="#1f2937" stroke-width="1.5" fill="none" stroke-linecap="round"/>
</svg>
